
        <svg xmlns="http://www.w3.org/2000/svg" xmlns:xlink="http://www.w3.org/1999/xlink" version="1.1" width="3300" height="2779.804386320228" viewBox="0 0 3300 2779.804386320228">
			
			<g transform="scale(15) translate(10, 10)">
				<defs id="SvgjsDefs1376"><linearGradient id="SvgjsLinearGradient1383"><stop id="SvgjsStop1384" stop-color="#8f5e25" offset="0"/><stop id="SvgjsStop1385" stop-color="#fbf4a1" offset="0.5"/><stop id="SvgjsStop1386" stop-color="#8f5e25" offset="1"/></linearGradient><linearGradient id="SvgjsLinearGradient1387"><stop id="SvgjsStop1388" stop-color="#8f5e25" offset="0"/><stop id="SvgjsStop1389" stop-color="#fbf4a1" offset="0.5"/><stop id="SvgjsStop1390" stop-color="#8f5e25" offset="1"/></linearGradient><linearGradient id="SvgjsLinearGradient1391"><stop id="SvgjsStop1392" stop-color="#8f5e25" offset="0"/><stop id="SvgjsStop1393" stop-color="#fbf4a1" offset="0.5"/><stop id="SvgjsStop1394" stop-color="#8f5e25" offset="1"/></linearGradient></defs><g id="SvgjsG1377" featureKey="AgVF85-0" transform="matrix(0.18484288354898337,0,0,0.18484288354898337,50,0)" fill="#000"><g xmlns="http://www.w3.org/2000/svg"><path class="st0" d="M270.5,0C131.2,0,15.2,104.9,1.2,243.1C0,251.9,0,261.2,0,270.5C0,419.8,121.3,541,270.5,541   S541,419.8,541,270.5S419.8,0,270.5,0z M5.8,270.5c0-8.7,0.6-18.1,1.2-26.8c1.2-10.5,2.9-21,5.2-31.5h203.5   c14.6,0,26.2,11.7,26.2,26.2v295c-18.1-1.7-35-5.8-51.9-11.1V302.6c0-18.1-14.6-32.1-32.1-32.1h-47.2   c-1.7-14.6-13.4-25.7-28.6-25.7c-15.7,0-28.6,12.8-28.6,28.6S66.5,302,82.2,302c14.6,0,26.8-11.1,28.6-25.7H158   c14.6,0,26.2,11.7,26.2,26.2v218.1C81,485.1,5.8,386.5,5.8,270.5z M105.5,273.4c0,12.8-10.5,22.7-22.7,22.7   c-12.2,0-22.7-10.5-22.7-22.7c0-12.8,10.5-22.7,22.7-22.7C95,250.7,105.5,260.6,105.5,273.4z M358.6,520.1V337   c0-14.6,11.7-26.2,26.2-26.2h32.1c1.7,14.6,13.4,25.7,28.6,25.7c15.7,0,28.6-12.8,28.6-28.6c0-15.7-12.8-28.6-28.6-28.6   c-14.6,0-26.8,11.1-28.6,25.7h-32.1c-18.1,0-32.1,14.6-32.1,32.1v184.8c-15.2,4.7-30.3,8.7-46.6,10.5v-358   c0-18.1-14.6-32.1-32.1-32.1h-67.6c-1.7-14.6-13.4-25.7-28.6-25.7c-15.7,0-28.6,12.8-28.6,28.6c0,15.7,12.8,28.6,28.6,28.6   c14.6,0,26.8-11.1,28.6-25.7H274c14.6,0,26.2,11.7,26.2,26.2v359.1c-9.9,1.2-19.8,1.7-29.7,1.7c-7.6,0-14.6-0.6-22.2-1.2V238.5   c0-18.1-14.6-32.1-32.1-32.1H13.4C42.6,89.8,146.9,5.8,270.5,5.8c28.6,0,56,4.7,82.2,12.8v149.3c0,18.1,14.6,32.1,32.1,32.1h32.1   c1.7,14.6,13.4,25.7,28.6,25.7c15.7,0,28.6-12.8,28.6-28.6s-12.8-28.6-28.6-28.6c-14.6,0-26.8,11.1-28.6,25.7h-32.1   c-14.6,0-26.2-11.7-26.2-26.2V21c102.6,36.1,176.7,134.7,176.7,249.5S461.2,483.9,358.6,520.1z M422.7,307.8   c0-12.8,10.5-22.7,22.7-22.7s22.7,10.5,22.7,22.7c0,12.2-10.5,22.7-22.7,22.7S422.7,320.7,422.7,307.8z M200.6,145.2   c0,12.8-10.5,22.7-22.7,22.7s-22.7-10.5-22.7-22.7s10.5-22.7,22.7-22.7S200.6,132.3,200.6,145.2z M422.7,197.6   c0-12.8,10.5-22.7,22.7-22.7s22.7,10.5,22.7,22.7s-10.5,22.7-22.7,22.7S422.7,210.5,422.7,197.6z" style="fill: url(#SvgjsLinearGradient1383);"/></g></g><g id="SvgjsG1378" featureKey="vRT5cH-0" transform="matrix(1.5693660400333695,0,0,1.5693660400333695,-2.605115957043346,113.12617656505415)" fill="#000"><path d="M12.18 20.3 c-0.24 0 -0.44666 -0.08666 -0.62 -0.26 s-0.26 -0.38 -0.26 -0.62 l0 -6.78 l-7.86 0 l0 6.78 c0 0.24 -0.08666 0.44666 -0.26 0.62 s-0.38 0.26 -0.62 0.26 c-0.25334 0 -0.46668 -0.08666 -0.64002 -0.26 s-0.26 -0.38 -0.26 -0.62 l0 -14.02 c0 -0.24 0.08666 -0.44666 0.26 -0.62 s0.38668 -0.26 0.64002 -0.26 c0.24 0 0.44666 0.08666 0.62 0.26 s0.26 0.38 0.26 0.62 l0 5.46 l7.86 0 l0 -5.46 c0 -0.24 0.08666 -0.44666 0.26 -0.62 s0.38 -0.26 0.62 -0.26 c0.25334 0 0.46668 0.08666 0.64002 0.26 s0.26 0.38 0.26 0.62 l0 14.02 c0 0.24 -0.08666 0.44666 -0.26 0.62 s-0.38668 0.26 -0.64002 0.26 z M28.36 20.22 c-0.10666 0.05334 -0.21992 0.08 -0.33992 0.08 c-0.17334 0 -0.33668 -0.04666 -0.49002 -0.14 s-0.26334 -0.22668 -0.33 -0.40002 l-1.58 -3.72 l-7.26 0 l-1.58 3.72 c-0.09334 0.22666 -0.25334 0.38666 -0.48 0.48 s-0.45332 0.08668 -0.67998 -0.01998 c-0.22666 -0.09334 -0.38666 -0.25334 -0.48 -0.48 s-0.08668 -0.45332 0.01998 -0.67998 l1.8 -4.26 l4.22 -9.88 c0.06666 -0.17334 0.17332 -0.30668 0.31998 -0.40002 s0.31332 -0.14 0.49998 -0.14 c0.17334 0 0.33334 0.04666 0.48 0.14 s0.25332 0.22668 0.31998 0.40002 c1.0133 2.3734 2.02 4.73 3.02 7.07 s2.0066 4.6966 3.02 7.07 c0.09334 0.22666 0.09334 0.45332 0 0.67998 s-0.25334 0.38666 -0.48 0.48 z M22 7.539999999999999 l-2.88 6.72 l5.74 0 z M38.96 20.3 l-8.5 -0.000039062 c-0.24 0 -0.44666 -0.08666 -0.62 -0.26 s-0.26 -0.38 -0.26 -0.62 c0 -0.16 0.04 -0.31334 0.12 -0.46 l7.68 -12.68 l-6.92 0 c-0.24 0 -0.44666 -0.08666 -0.62 -0.26 s-0.26 -0.38 -0.26 -0.62 s0.08666 -0.44666 0.26 -0.62 s0.38 -0.26 0.62 -0.26 l8.5 0 c0.24 0 0.44666 0.08666 0.62 0.26 s0.26 0.38 0.26 0.62 c0 0.17334 -0.04 0.32668 -0.12 0.46002 l-7.68 12.66 l6.92 0 c0.24 0 0.44666 0.08666 0.62 0.26 s0.26 0.38668 0.26 0.64002 c0 0.24 -0.08666 0.44666 -0.26 0.62 s-0.38 0.26 -0.62 0.26 z M62.06 17.96 c-0.76 0.76 -1.6234 1.3399 -2.59 1.7399 s-1.99 0.6 -3.07 0.6 c-1.1067 0 -2.1434 -0.21 -3.11 -0.63 s-1.81 -0.99 -2.53 -1.71 s-1.29 -1.5633 -1.71 -2.53 s-0.63 -2.0034 -0.63 -3.11 s0.21 -2.1334 0.63 -3.08 s0.99334 -1.77 1.72 -2.47 s1.5733 -1.25 2.54 -1.65 s1.9967 -0.6 3.09 -0.6 c1.08 0 2.1034 0.2 3.07 0.6 s1.83 0.98 2.59 1.74 c0.17334 0.17334 0.26 0.38 0.26 0.62 s-0.08666 0.44666 -0.26 0.62 c-0.18666 0.18666 -0.4 0.28 -0.64 0.28 s-0.44666 -0.09334 -0.62 -0.28 c-0.6 -0.58666 -1.2733 -1.0367 -2.02 -1.35 s-1.54 -0.47 -2.38 -0.47 c-0.85334 0 -1.6567 0.15334 -2.41 0.46 s-1.41 0.73 -1.97 1.27 s-1.0033 1.18 -1.33 1.92 s-0.49 1.5367 -0.49 2.39 s0.16334 1.6567 0.49 2.41 s0.77 1.41 1.33 1.97 s1.2167 1.0033 1.97 1.33 s1.5567 0.49 2.41 0.49 c0.77334 0 1.5133 -0.13334 2.22 -0.4 s1.3467 -0.65332 1.92 -1.16 l0 -3.76 l-4.04 0 c-0.25334 0 -0.46668 -0.08666 -0.64002 -0.26 s-0.26 -0.38 -0.26 -0.62 c0 -0.25334 0.08666 -0.46668 0.26 -0.64002 s0.38668 -0.26 0.64002 -0.26 l4.92 0 c0.25334 0 0.46668 0.08666 0.64002 0.26 s0.26 0.38668 0.26 0.64002 l0 5.02 c0 0.24 -0.08666 0.44666 -0.26 0.62 z M74.18 20.3 c-0.25334 0 -0.46668 -0.0867 -0.64002 -0.26004 s-0.26 -0.38 -0.26 -0.62 l0 -0.38 c-0.46666 0.4 -0.98666 0.71 -1.56 0.93 s-1.1733 0.33 -1.8 0.33 c-0.70666 0 -1.3733 -0.13666 -2 -0.41 s-1.1733 -0.64334 -1.64 -1.11 s-0.83666 -1.01 -1.11 -1.63 s-0.41 -1.2833 -0.41 -1.99 s0.13666 -1.3733 0.41 -2 s0.64334 -1.1733 1.11 -1.64 s1.0133 -0.83666 1.64 -1.11 s1.2933 -0.41 2 -0.41 c0.62666 0 1.2267 0.11 1.8 0.33 s1.0933 0.53 1.56 0.93 l0 -0.38 c0 -0.24 0.08666 -0.44666 0.26 -0.62 s0.38668 -0.26 0.64002 -0.26 c0.24 0 0.44666 0.08666 0.62 0.26 s0.26 0.38 0.26 0.62 l0 8.54 c0 0.24 -0.08666 0.44666 -0.26 0.62 s-0.38 0.26 -0.62 0.26 z M69.92 11.78 c-0.46666 0 -0.90332 0.09 -1.31 0.27 s-0.76332 0.42334 -1.07 0.73 s-0.55 0.66332 -0.73 1.07 s-0.27 0.84332 -0.27 1.31 s0.09 0.90332 0.27 1.31 s0.42334 0.76332 0.73 1.07 s0.66332 0.54666 1.07 0.72 s0.84332 0.26 1.31 0.26 s0.90332 -0.08666 1.31 -0.26 s0.76332 -0.41334 1.07 -0.72 s0.54666 -0.66332 0.72 -1.07 s0.26 -0.84332 0.26 -1.31 s-0.08666 -0.90332 -0.26 -1.31 s-0.41334 -0.76332 -0.72 -1.07 s-0.66332 -0.55 -1.07 -0.73 s-0.84332 -0.27 -1.31 -0.27 z M86.92 20.3 c-0.25334 0 -0.46668 -0.0867 -0.64002 -0.26004 s-0.26 -0.38 -0.26 -0.62 l0 -0.38 c-0.46666 0.4 -0.98666 0.71 -1.56 0.93 s-1.1733 0.33 -1.8 0.33 c-0.70666 0 -1.3733 -0.13666 -2 -0.41 s-1.1733 -0.64334 -1.64 -1.11 s-0.83666 -1.01 -1.11 -1.63 s-0.41 -1.2833 -0.41 -1.99 s0.13666 -1.3733 0.41 -2 s0.64334 -1.1733 1.11 -1.64 s1.0133 -0.83666 1.64 -1.11 s1.2933 -0.41 2 -0.41 c0.62666 0 1.2267 0.11 1.8 0.33 s1.0933 0.53666 1.56 0.95 l0 -5.88 c0 -0.24 0.08666 -0.44666 0.26 -0.62 s0.38668 -0.26 0.64002 -0.26 c0.24 0 0.44666 0.08666 0.62 0.26 s0.26 0.38 0.26 0.62 l0 14.02 c0 0.24 -0.08666 0.44666 -0.26 0.62 s-0.38 0.26 -0.62 0.26 z M82.66 11.78 c-0.46666 0 -0.90332 0.09 -1.31 0.27 s-0.76332 0.42334 -1.07 0.73 s-0.55 0.66332 -0.73 1.07 s-0.27 0.84332 -0.27 1.31 s0.09 0.90332 0.27 1.31 s0.42334 0.76 0.73 1.06 s0.66332 0.54 1.07 0.72 s0.84332 0.27 1.31 0.27 c0.45334 0 0.88668 -0.09 1.3 -0.27 s0.77 -0.42 1.07 -0.72 s0.54 -0.65334 0.72 -1.06 s0.27 -0.84332 0.27 -1.31 s-0.09 -0.90332 -0.27 -1.31 s-0.42 -0.76332 -0.72 -1.07 s-0.65666 -0.55 -1.07 -0.73 s-0.84668 -0.27 -1.3 -0.27 z M95.39999999999999 24.6 c-0.44 0 -0.8767 -0.0567 -1.31 -0.17004 s-0.84668 -0.28 -1.24 -0.5 s-0.75334 -0.48666 -1.08 -0.8 s-0.59666 -0.66334 -0.81 -1.05 c-0.02666 -0.06666 -0.05332 -0.13666 -0.07998 -0.21 s-0.04 -0.15 -0.04 -0.23 c0 -0.24 0.08666 -0.45 0.26 -0.63 s0.38668 -0.27 0.64002 -0.27 c0.18666 0 0.33332 0.04 0.43998 0.12 s0.20666 0.17334 0.3 0.28 c0.02666 0.05334 0.06 0.10334 0.1 0.15 s0.07334 0.09666 0.1 0.15 l0.18 0.24 c0.30666 0.36 0.68666 0.64 1.14 0.84 s0.92 0.3 1.4 0.3 c0.45334 0 0.88668 -0.09 1.3 -0.27 s0.77 -0.42334 1.07 -0.73 s0.54 -0.66332 0.72 -1.07 s0.27 -0.84332 0.27 -1.31 l0 -0.42 c-0.46666 0.41334 -0.98666 0.73 -1.56 0.95 s-1.1733 0.33 -1.8 0.33 c-0.70666 0 -1.3733 -0.13666 -2 -0.41 s-1.1733 -0.64334 -1.64 -1.11 s-0.83666 -1.0133 -1.11 -1.64 s-0.41 -1.2933 -0.41 -2 s0.13666 -1.37 0.41 -1.99 s0.64334 -1.1633 1.11 -1.63 s1.0133 -0.83666 1.64 -1.11 s1.2933 -0.41 2 -0.41 c0.62666 0 1.2267 0.11 1.8 0.33 s1.0933 0.53 1.56 0.93 l0 -0.38 c0 -0.24 0.08666 -0.44666 0.26 -0.62 s0.38668 -0.26 0.64002 -0.26 c0.24 0 0.44666 0.08666 0.62 0.26 s0.26 0.38 0.26 0.62 l0 8.56 c0 0.70666 -0.13666 1.3733 -0.41 2 s-0.64334 1.1733 -1.11 1.64 s-1.01 0.83666 -1.63 1.11 s-1.2833 0.41 -1.99 0.41 z M95.39999999999999 11.78 c-0.46666 0 -0.90332 0.09 -1.31 0.27 s-0.76332 0.42 -1.07 0.72 s-0.55 0.65666 -0.73 1.07 s-0.27 0.84668 -0.27 1.3 c0 0.46666 0.09 0.90332 0.27 1.31 s0.42334 0.76332 0.73 1.07 s0.66332 0.55 1.07 0.73 s0.84332 0.27 1.31 0.27 c0.45334 0 0.88668 -0.09 1.3 -0.27 s0.77 -0.42334 1.07 -0.73 s0.54 -0.66332 0.72 -1.07 s0.27 -0.84332 0.27 -1.31 c0 -0.45334 -0.09 -0.88668 -0.27 -1.3 s-0.42 -0.77 -0.72 -1.07 s-0.65666 -0.54 -1.07 -0.72 s-0.84668 -0.27 -1.3 -0.27 z M112.38 15.620000000000001 l-7.58 -0.000058594 c0.05334 0.41334 0.17668 0.79668 0.37002 1.15 s0.44 0.66 0.74 0.92 s0.64 0.46334 1.02 0.61 s0.78334 0.22 1.21 0.22 c0.25334 0 0.48334 -0.02 0.69 -0.06 s0.4 -0.10334 0.58 -0.19 s0.36 -0.19332 0.54 -0.31998 s0.37666 -0.27 0.59 -0.43 c0.08 -0.06666 0.16334 -0.12332 0.25 -0.16998 s0.20332 -0.07 0.34998 -0.07 c0.25334 0 0.46668 0.08666 0.64002 0.26 s0.26 0.38 0.26 0.62 c0 0.14666 -0.02666 0.26666 -0.08 0.36 s-0.11334 0.18 -0.18 0.26 c-0.21334 0.24 -0.46334 0.45666 -0.75 0.65 s-0.59332 0.35334 -0.91998 0.48 s-0.66 0.22332 -1 0.28998 s-0.66334 0.1 -0.97 0.1 c-0.70666 0 -1.3733 -0.13666 -2 -0.41 s-1.1733 -0.64334 -1.64 -1.11 s-0.83666 -1.01 -1.11 -1.63 s-0.41 -1.2833 -0.41 -1.99 s0.13666 -1.3733 0.41 -2 s0.64334 -1.1733 1.11 -1.64 s1.0133 -0.83666 1.64 -1.11 s1.2933 -0.41 2 -0.41 c0.68 0 1.32 0.11334 1.92 0.34 s1.1333 0.55 1.6 0.97 s0.84 0.92 1.12 1.5 s0.44 1.2167 0.48 1.91 c0.01334 0.26666 -0.07 0.48332 -0.25 0.64998 s-0.39 0.25 -0.63 0.25 z M108.13999999999999 11.78 c-0.69334 0 -1.32 0.19 -1.88 0.57 s-0.97334 0.87666 -1.24 1.49 l6.22 0 c-0.25334 -0.62666 -0.66334 -1.1267 -1.23 -1.5 s-1.19 -0.56 -1.87 -0.56 z M120.35999999999999 11.78 l-1.62 0 l0 7.64 c0 0.24 -0.08666 0.44666 -0.26 0.62 s-0.38668 0.26 -0.64002 0.26 c-0.24 0 -0.44666 -0.08666 -0.62 -0.26 s-0.26 -0.38 -0.26 -0.62 l0 -7.64 l-1.64 0 c-0.24 0 -0.44666 -0.08666 -0.62 -0.26 s-0.26 -0.38 -0.26 -0.62 c0 -0.25334 0.08666 -0.46668 0.26 -0.64002 s0.38 -0.26 0.62 -0.26 l1.64 0 l0 -2.94 c0 -0.25334 0.08666 -0.46334 0.26 -0.63 s0.38 -0.25 0.62 -0.25 c0.25334 0 0.46668 0.08334 0.64002 0.25 s0.26 0.37666 0.26 0.63 l0 2.94 l1.62 0 c0.25334 0 0.46668 0.08666 0.64002 0.26 s0.26 0.38668 0.26 0.64002 c0 0.24 -0.08666 0.44666 -0.26 0.62 s-0.38668 0.26 -0.64002 0.26 z M125.88 20.3 c-0.4 0 -0.8033 -0.06666 -1.21 -0.2 s-0.77332 -0.32668 -1.1 -0.58002 s-0.59332 -0.56668 -0.79998 -0.94002 s-0.31 -0.79334 -0.31 -1.26 c0 -0.24 0.08666 -0.44666 0.26 -0.62 s0.38 -0.26 0.62 -0.26 c0.25334 0 0.46668 0.08666 0.64002 0.26 s0.26 0.38 0.26 0.62 c0 0.38666 0.16666 0.68332 0.5 0.88998 s0.71334 0.31 1.14 0.31 c0.46666 0 0.82332 -0.09666 1.07 -0.29 s0.37 -0.51 0.37 -0.95 c0 -0.26666 -0.05 -0.48 -0.15 -0.64 s-0.24334 -0.3 -0.43 -0.42 c-0.10666 -0.06666 -0.21666 -0.12332 -0.33 -0.16998 s-0.23668 -0.09666 -0.37002 -0.15 s-0.27 -0.1 -0.41 -0.14 s-0.28334 -0.08666 -0.43 -0.14 c-0.29334 -0.09334 -0.59 -0.20334 -0.89 -0.33 s-0.57334 -0.29 -0.82 -0.49 s-0.44666 -0.45334 -0.6 -0.76 s-0.23 -0.69332 -0.23 -1.16 c0 -0.42666 0.08 -0.81666 0.24 -1.17 s0.38 -0.65668 0.66 -0.91002 s0.60334 -0.45 0.97 -0.59 s0.75 -0.21 1.15 -0.21 s0.78334 0.07 1.15 0.21 s0.68666 0.33666 0.96 0.59 s0.49334 0.55668 0.66 0.91002 s0.25 0.74334 0.25 1.17 c0 0.24 -0.08666 0.44666 -0.26 0.62 s-0.38668 0.26 -0.64002 0.26 c-0.24 0 -0.44666 -0.08666 -0.62 -0.26 s-0.26 -0.38 -0.26 -0.62 c0 -0.33334 -0.12 -0.6 -0.36 -0.8 s-0.53334 -0.3 -0.88 -0.3 s-0.64 0.1 -0.88 0.3 s-0.36 0.46666 -0.36 0.8 c0 0.30666 0.18666 0.55332 0.56 0.73998 c0.21334 0.12 0.45334 0.22 0.72 0.3 c0.13334 0.06666 0.27334 0.12 0.42 0.16 s0.29332 0.09334 0.43998 0.16 c0.29334 0.10666 0.59 0.23666 0.89 0.39 s0.57 0.34668 0.81 0.58002 s0.43666 0.51668 0.59 0.85002 s0.23 0.74 0.23 1.22 s-0.08334 0.90666 -0.25 1.28 s-0.39666 0.69 -0.69 0.95 s-0.63668 0.45666 -1.03 0.59 s-0.81 0.2 -1.25 0.2 z"/></g><g id="SvgjsG1379" featureKey="dDj50M-0" transform="matrix(0.2231379155249662,0,0,0.2231379155249662,39.910744706109476,160.81290625110302)" fill="#000"><path d="M14.68 20 l-4.2 -7.34 l-4.18 7.34 l-1.92 0 l-3.98 -14.24 l1.88 0 l3.3 11.9 l3.9 -6.84 l2.02 0 l3.88 6.84 l3.32 -11.9 l1.88 0 l-3.98 14.24 l-1.92 0 z M38.708 20 l0 -7.42 l-7.3 0 l0 7.42 l-1.8 0 l0 -14.24 l1.8 0 l0 5.08 l7.3 0 l0 -5.08 l1.8 0 l0 14.24 l-1.8 0 z M50.736000000000004 20 l0 -14.24 l9 0 l0 1.72 l-7.2 0 l0 3.34 l6.28 0 l0 1.78 l-6.28 0 l0 5.64 l7.02 0 l0 1.76 l-8.82 0 z M74.98400000000001 12.42 l5.5 7.58 l-2.06 0 l-5.44 -7.48 l-2.04 0 l0 7.48 l-1.72 0 l0 -14.24 l4.94 0 c0.9 0 1.74 0.36 2.38 1 s1 1.48 1 2.38 c0 1.58 -1.1 2.9 -2.56 3.28 z M70.944 7.48 l0 3.32 l3.22 0 c0.92 0 1.66 -0.74 1.66 -1.66 s-0.74 -1.66 -1.66 -1.66 l-3.22 0 z M88.61200000000001 20 l0 -14.24 l9 0 l0 1.72 l-7.2 0 l0 3.34 l6.28 0 l0 1.78 l-6.28 0 l0 5.64 l7.02 0 l0 1.76 l-8.82 0 z M131.048 17.36 l2.64 2.64 l-2.5 0 l-1.38 -1.38 c-1.28 0.98 -2.88 1.58 -4.62 1.58 c-4.1 0 -7.44 -3.32 -7.44 -7.42 c0 -4.12 3.34 -7.46 7.44 -7.46 c4.12 0 7.46 3.34 7.46 7.46 c0 1.72 -0.6 3.32 -1.6 4.58 z M125.828 12.14 l3.94 3.94 c0.68 -0.92 1.08 -2.08 1.08 -3.3 c0 -3.12 -2.54 -5.7 -5.66 -5.7 c-3.1 0 -5.64 2.58 -5.64 5.7 c0 3.1 2.54 5.66 5.64 5.66 c1.26 0 2.4 -0.42 3.34 -1.1 l-3.96 -3.94 z M151.23600000000002 5.76 l1.8 0 l0 9.02 c0 3 -2.44 5.42 -5.44 5.42 c-2.98 0 -5.42 -2.42 -5.42 -5.42 l0 -9.02 l1.78 0 l0 9.02 c0 2.02 1.64 3.68 3.64 3.68 c2.02 0 3.64 -1.66 3.64 -3.68 l0 -9.02 z M172.18400000000003 20 l-1.58 -4.14 l-5.82 0 l-1.58 4.14 l-1.92 0 l5.48 -14.24 l1.86 0 l5.5 14.24 l-1.94 0 z M169.90400000000002 14.1 l-2.2 -5.76 l-2.22 5.76 l4.42 0 z M183.15200000000002 20 l0 -14.24 l1.8 0 l0 12.5 l7.8 0 l0 1.74 l-9.6 0 z M202.60000000000002 20 l0 -14.24 l1.8 0 l0 14.24 l-1.8 0 z M218.42800000000003 20 l0 -12.48 l-3.76 0 l0 -1.76 l9.32 0 l0 1.76 l-3.76 0 l0 12.48 l-1.8 0 z M237.39600000000002 20 l0 -7.2 l-5.02 -7.04 l2.2 0 l3.74 5.22 l3.74 -5.22 l2.18 0 l-5.02 7.04 l0 7.2 l-1.82 0 z M277.83200000000005 20 l-1.78 0 l0 -11.36 l-4.54 6.2 l-4.52 -6.2 l0 11.36 l-1.78 0 l0 -14.24 l1.88 0 l4.42 6.08 l4.42 -6.08 l1.9 0 l0 14.24 z M287.86 20 l0 -14.24 l9 0 l0 1.72 l-7.2 0 l0 3.34 l6.28 0 l0 1.78 l-6.28 0 l0 5.64 l7.02 0 l0 1.76 l-8.82 0 z M306.428 20 l0 -14.24 l9 0 l0 1.72 l-7.2 0 l0 3.34 l6.28 0 l0 1.78 l-6.28 0 l0 5.64 l7.02 0 l0 1.76 l-8.82 0 z M328.096 20 l0 -12.48 l-3.76 0 l0 -1.76 l9.32 0 l0 1.76 l-3.76 0 l0 12.48 l-1.8 0 z M354.85200000000003 20 l0 -14.24 l1.8 0 l0 14.24 l-1.8 0 z M377.00000000000006 20 l-7.62 -11.26 l0 11.26 l-1.8 0 l0 -14.24 l1.96 0 l7.6 11.26 l0 -11.26 l1.8 0 l0 14.24 l-1.94 0 z M398.84800000000007 20 l-7.62 -11.26 l0 11.26 l-1.8 0 l0 -14.24 l1.96 0 l7.6 11.26 l0 -11.26 l1.8 0 l0 14.24 l-1.94 0 z M417.5160000000001 5.32 c4.1 0 7.46 3.34 7.46 7.46 c0 4.1 -3.36 7.42 -7.46 7.42 s-7.44 -3.32 -7.44 -7.42 c0 -4.12 3.34 -7.46 7.44 -7.46 z M417.5160000000001 18.44 c3.12 0 5.64 -2.56 5.64 -5.66 c0 -3.12 -2.52 -5.7 -5.64 -5.7 s-5.64 2.58 -5.64 5.7 c0 3.1 2.52 5.66 5.64 5.66 z M432.144 5.76 l1.94 0 l4.48 11.66 l4.5 -11.66 l1.92 0 l-5.48 14.24 l-1.86 0 z M461.31200000000007 20 l-1.58 -4.14 l-5.82 0 l-1.58 4.14 l-1.92 0 l5.48 -14.24 l1.86 0 l5.5 14.24 l-1.94 0 z M459.03200000000004 14.1 l-2.2 -5.76 l-2.22 5.76 l4.42 0 z M475.0800000000001 20 l0 -12.48 l-3.76 0 l0 -1.76 l9.32 0 l0 1.76 l-3.76 0 l0 12.48 l-1.8 0 z M490.90800000000013 20 l0 -14.24 l1.8 0 l0 14.24 l-1.8 0 z M509.95600000000013 5.32 c4.1 0 7.46 3.34 7.46 7.46 c0 4.1 -3.36 7.42 -7.46 7.42 s-7.44 -3.32 -7.44 -7.42 c0 -4.12 3.34 -7.46 7.44 -7.46 z M509.95600000000013 18.44 c3.12 0 5.64 -2.56 5.64 -5.66 c0 -3.12 -2.52 -5.7 -5.64 -5.7 s-5.64 2.58 -5.64 5.7 c0 3.1 2.52 5.66 5.64 5.66 z M536.2440000000001 20 l-7.62 -11.26 l0 11.26 l-1.8 0 l0 -14.24 l1.96 0 l7.6 11.26 l0 -11.26 l1.8 0 l0 14.24 l-1.94 0 z"/></g>
			</g>
		</svg>
	